# xmcd
#
# Track frame offsets:
#	150
#	20352
#	38520
#	53862
#	69715
#	87190
#	104920
#	124230
#	140132
#	156805
#	180047
#
# Disc length: 2667 seconds
#
# Revision: 1
# Processed by: cddbd v1.5.2PL0 Copyright (c) Steve Scherf et al.
# Submitted via: EZCDAudioConverter 6.0.8.1
#
DISCID=920a690b
DTITLE=Dan Seals - Harbinger
DYEAR=1982
DGENRE=Country
TTITLE0=Can't Get You out of My Head
TTITLE1=I Could Be Lovin' You Right Now
TTITLE2=It's Not Gonna Be That Easy
TTITLE3=In My Heart
TTITLE4=It Will Be Alright
TTITLE5=I Don't Believe I'll Fall in Love Again
TTITLE6=Once in a While
TTITLE7=Up to Me
TTITLE8=Not Every Heart Succeeds
TTITLE9=Bad News
TTITLE10=Harbinger, Sage or Fool
EXTD=
EXTT0=
EXTT1=
EXTT2=
EXTT3=
EXTT4=
EXTT5=
EXTT6=
EXTT7=
EXTT8=
EXTT9=
EXTT10=
PLAYORDER=
